<svg width="99" height="48" viewBox="0 0 99 48" fill="none" xmlns="http://www.w3.org/2000/svg">
<g filter="url(#filter0_d_3_20757)">
<path d="M5.04715 10.3073V1.65986H10.266V2.58879H6.0943V5.51068H9.99579V6.4396H6.0943V9.37839H10.3336V10.3073H5.04715ZM16.9063 3.82172C16.8556 3.39386 16.6501 3.06169 16.2898 2.82524C15.9295 2.58879 15.4876 2.47056 14.964 2.47056C14.5812 2.47056 14.2462 2.53249 13.9591 2.65635C13.6748 2.7802 13.4524 2.9505 13.2919 3.16725C13.1343 3.384 13.0555 3.63031 13.0555 3.90617C13.0555 4.137 13.1104 4.33545 13.2201 4.50153C13.3327 4.66479 13.4763 4.80132 13.6508 4.9111C13.8253 5.01807 14.0083 5.10674 14.1997 5.17711C14.3911 5.24467 14.5671 5.29956 14.7275 5.34178L15.6058 5.57824C15.831 5.63735 16.0815 5.71898 16.3574 5.82314C16.6361 5.92729 16.9021 6.06944 17.1554 6.2496C17.4116 6.42694 17.6227 6.65495 17.7888 6.93362C17.9548 7.2123 18.0379 7.55432 18.0379 7.95966C18.0379 8.42694 17.9154 8.84918 17.6705 9.22638C17.4285 9.60358 17.0738 9.90337 16.6065 10.1257C16.142 10.3481 15.5776 10.4593 14.9133 10.4593C14.294 10.4593 13.7578 10.3594 13.3046 10.1595C12.8542 9.95967 12.4995 9.68099 12.2405 9.3235C11.9844 8.966 11.8394 8.5508 11.8056 8.07789H12.8866C12.9147 8.40442 13.0245 8.67466 13.2159 8.88859C13.4101 9.09971 13.655 9.25734 13.9506 9.3615C14.249 9.46283 14.5699 9.5135 14.9133 9.5135C15.313 9.5135 15.6719 9.44876 15.99 9.31927C16.3081 9.18697 16.56 9.004 16.7458 8.77036C16.9316 8.53391 17.0245 8.25805 17.0245 7.94277C17.0245 7.65565 16.9443 7.42201 16.7838 7.24186C16.6234 7.0617 16.4123 6.91533 16.1505 6.80273C15.8887 6.69013 15.6058 6.59161 15.3018 6.50716L14.2377 6.20315C13.5622 6.00892 13.0273 5.73165 12.6332 5.37134C12.2391 5.01103 12.0421 4.53953 12.0421 3.95684C12.0421 3.47267 12.173 3.05043 12.4348 2.69012C12.6994 2.327 13.0541 2.04551 13.4988 1.84565C13.9464 1.64297 14.446 1.54163 14.9978 1.54163C15.5551 1.54163 16.0505 1.64156 16.484 1.84142C16.9175 2.03847 17.261 2.3087 17.5143 2.65212C17.7705 2.99554 17.9056 3.38541 17.9197 3.82172H16.9063ZM26.7418 4.36219H25.6947C25.6328 4.06099 25.5244 3.79639 25.3696 3.56838C25.2176 3.34037 25.0318 3.14896 24.8122 2.99414C24.5955 2.8365 24.3548 2.71827 24.0902 2.63946C23.8256 2.56064 23.5497 2.52123 23.2626 2.52123C22.739 2.52123 22.2647 2.65353 21.8396 2.91813C21.4174 3.18274 21.081 3.5726 20.8305 4.08774C20.5828 4.60287 20.4589 5.23482 20.4589 5.98359C20.4589 6.73236 20.5828 7.36431 20.8305 7.87944C21.081 8.39457 21.4174 8.78444 21.8396 9.04904C22.2647 9.31364 22.739 9.44594 23.2626 9.44594C23.5497 9.44594 23.8256 9.40654 24.0902 9.32772C24.3548 9.2489 24.5955 9.13208 24.8122 8.97726C25.0318 8.81962 25.2176 8.6268 25.3696 8.39879C25.5244 8.16797 25.6328 7.90337 25.6947 7.60498H26.7418C26.663 8.04693 26.5195 8.44242 26.3112 8.79147C26.1029 9.14053 25.8439 9.4375 25.5342 9.6824C25.2246 9.92448 24.877 10.1089 24.4913 10.2355C24.1085 10.3622 23.6989 10.4255 23.2626 10.4255C22.5251 10.4255 21.8692 10.2454 21.295 9.88507C20.7207 9.52476 20.2689 9.01245 19.9396 8.34812C19.6102 7.6838 19.4456 6.89562 19.4456 5.98359C19.4456 5.07155 19.6102 4.28337 19.9396 3.61905C20.2689 2.95473 20.7207 2.44241 21.295 2.0821C21.8692 1.72179 22.5251 1.54163 23.2626 1.54163C23.6989 1.54163 24.1085 1.60497 24.4913 1.73164C24.877 1.85831 25.2246 2.0441 25.5342 2.289C25.8439 2.53108 26.1029 2.82665 26.3112 3.1757C26.5195 3.52193 26.663 3.91743 26.7418 4.36219ZM35.754 5.98359C35.754 6.89562 35.5894 7.6838 35.26 8.34812C34.9307 9.01245 34.4789 9.52476 33.9046 9.88507C33.3304 10.2454 32.6745 10.4255 31.937 10.4255C31.1995 10.4255 30.5436 10.2454 29.9694 9.88507C29.3951 9.52476 28.9433 9.01245 28.614 8.34812C28.2846 7.6838 28.12 6.89562 28.12 5.98359C28.12 5.07155 28.2846 4.28337 28.614 3.61905C28.9433 2.95473 29.3951 2.44241 29.9694 2.0821C30.5436 1.72179 31.1995 1.54163 31.937 1.54163C32.6745 1.54163 33.3304 1.72179 33.9046 2.0821C34.4789 2.44241 34.9307 2.95473 35.26 3.61905C35.5894 4.28337 35.754 5.07155 35.754 5.98359ZM34.7407 5.98359C34.7407 5.23482 34.6154 4.60287 34.3649 4.08774C34.1171 3.5726 33.7808 3.18274 33.3557 2.91813C32.9335 2.65353 32.4606 2.52123 31.937 2.52123C31.4134 2.52123 30.9391 2.65353 30.514 2.91813C30.0918 3.18274 29.7554 3.5726 29.5049 4.08774C29.2572 4.60287 29.1333 5.23482 29.1333 5.98359C29.1333 6.73236 29.2572 7.36431 29.5049 7.87944C29.7554 8.39457 30.0918 8.78444 30.514 9.04904C30.9391 9.31364 31.4134 9.44594 31.937 9.44594C32.4606 9.44594 32.9335 9.31364 33.3557 9.04904C33.7808 8.78444 34.1171 8.39457 34.3649 7.87944C34.6154 7.36431 34.7407 6.73236 34.7407 5.98359ZM37.5385 10.3073V1.65986H38.5857V9.37839H42.6054V10.3073H37.5385ZM45.151 10.3073H44.0532L47.2284 1.65986H48.3094L51.4846 10.3073H50.3868L47.8027 3.02792H47.7351L45.151 10.3073ZM45.5564 6.9294H49.9814V7.85833H45.5564V6.9294Z" fill="black"/>
<path d="M22.6875 34.1976L20.7578 34.3753C19.8268 28.5355 18.8197 23.5335 17.7363 19.3694C17.1777 20.6898 16.5599 22.5517 15.8828 24.9554C15.2227 27.3421 14.7656 28.8909 14.5117 29.6019C14.4779 29.6019 14.4186 29.6103 14.334 29.6273C14.2663 29.6273 14.207 29.6273 14.1562 29.6273C13.9193 29.6273 13.5299 29.6019 12.9883 29.5511C12.4466 29.5003 12.0996 29.4749 11.9473 29.4749C11.9303 28.984 11.4987 27.3506 10.6523 24.5745C9.80599 21.7816 9.29818 19.9957 9.12891 19.2171C8.82422 21.9593 7.63932 26.9528 5.57422 34.1976L4 34.0452C4.23698 32.2002 4.82096 29.2972 5.75195 25.3362C6.68294 21.3753 7.23307 18.3115 7.40234 16.1448C7.70703 16.111 7.95247 16.0941 8.13867 16.0941C8.30794 16.0941 8.93424 16.1618 10.0176 16.2972C10.2546 16.331 10.5931 17.1012 11.0332 18.6077C11.4902 20.0973 11.9473 21.7392 12.4043 23.5335C12.8613 25.3278 13.1491 26.3857 13.2676 26.7073C13.7415 25.5394 14.3086 23.6435 14.9688 21.0198C15.6458 18.3961 16.1198 16.7288 16.3906 16.0179C16.6615 16.0348 17.5163 16.111 18.9551 16.2464C19.3952 17.956 19.8184 19.8011 20.2246 21.7816C20.6478 23.762 21.0964 26.0133 21.5703 28.5355C22.0612 31.0576 22.4336 32.945 22.6875 34.1976ZM31.3215 21.4515L32.5403 21.68V21.9339C32.5403 23.0849 32.608 25.0316 32.7434 27.7737C32.8958 30.5159 33.0312 32.6318 33.1497 34.1214C32.8111 34.2568 32.4895 34.3245 32.1848 34.3245C31.914 34.3245 31.6093 34.2822 31.2708 34.1976L31.0676 33.5374C29.9843 34.1468 28.9517 34.4515 27.97 34.4515C27.2421 34.4515 26.6073 34.2822 26.0657 33.9437C25.5409 33.6051 25.1347 33.1904 24.8469 32.6995C24.5592 32.1917 24.3306 31.5739 24.1614 30.846C23.9921 30.1012 23.8821 29.4326 23.8313 28.8401C23.7974 28.2308 23.7805 27.5537 23.7805 26.8089C23.7805 24.6422 23.9159 22.6533 24.1868 20.8421L25.3293 21.096C25.4478 21.6546 25.5071 22.264 25.5071 22.9241C25.5071 23.2965 25.4817 23.9398 25.4309 24.8538C25.3971 25.7679 25.3801 26.4619 25.3801 26.9359C25.3801 27.7653 25.414 28.4847 25.4817 29.0941C25.5663 29.6865 25.7102 30.2705 25.9133 30.846C26.1334 31.4046 26.4635 31.8362 26.9036 32.1409C27.3437 32.4456 27.8938 32.598 28.554 32.598C29.2987 32.598 30.1028 32.4287 30.9661 32.0901C30.9999 31.4638 31.0338 29.8642 31.0676 27.2913C31.1015 24.7015 31.1861 22.7549 31.3215 21.4515ZM36.9849 24.0413L37.0864 34.096C36.8325 34.2314 36.5278 34.2991 36.1724 34.2991C35.9015 34.2991 35.5968 34.2568 35.2583 34.1722C35.3091 33.1058 35.3429 31.0068 35.3599 27.8753C35.3768 24.7438 35.4445 22.4248 35.563 20.9183L36.7056 21.1722L36.7817 22.5941C37.6789 21.6461 38.7114 21.1722 39.8794 21.1722C40.4718 21.1722 40.9458 21.2145 41.3013 21.2991C41.6567 21.3838 41.9953 21.5954 42.3169 21.9339C42.6554 22.2555 42.9093 22.6872 43.0786 23.2288C43.2479 23.7705 43.4002 24.5491 43.5356 25.5648C43.6711 26.5635 43.7642 27.7399 43.8149 29.0941C43.8826 30.4313 43.925 32.124 43.9419 34.1722C43.8403 34.206 43.6457 34.223 43.3579 34.223C42.7485 34.223 42.2746 34.1468 41.936 33.9944C41.8683 33.7236 41.8345 33.275 41.8345 32.6487C41.8345 32.3271 41.8429 31.7262 41.8599 30.846C41.8937 29.9489 41.9106 29.2549 41.9106 28.764C41.9106 27.9515 41.8768 27.2405 41.8091 26.6312C41.7583 26.0218 41.6483 25.4209 41.479 24.8284C41.3267 24.236 41.0812 23.779 40.7427 23.4573C40.4211 23.1357 40.0148 22.9749 39.5239 22.9749C38.9653 22.9749 38.5252 23.0172 38.2036 23.1019C37.8989 23.1865 37.6789 23.2881 37.5435 23.4066C37.425 23.525 37.2388 23.7366 36.9849 24.0413ZM55.1912 34.8577L53.7947 34.5784C53.7947 34.2399 53.7862 33.986 53.7693 33.8167C52.8721 34.3922 51.9242 34.68 50.9255 34.68C49.3852 34.68 48.1833 34.0198 47.3201 32.6995C46.4737 31.3792 46.0505 29.8812 46.0505 28.2054C46.0505 27.3421 46.1098 26.5296 46.2283 25.7679C46.3637 25.0062 46.5837 24.2275 46.8884 23.4319C47.21 22.6194 47.7009 21.9762 48.3611 21.5023C49.0382 21.0283 49.8507 20.7913 50.7986 20.7913C51.7296 20.7913 52.6013 21.0198 53.4138 21.4769C53.5492 19.6826 53.6169 17.8714 53.6169 16.0433C53.6169 15.2138 53.6085 14.6045 53.5915 14.2151C54.404 14.3675 55.0473 14.5622 55.5212 14.7991L55.1912 34.8577ZM53.5662 32.1409L53.49 23.9651C53.2869 23.542 52.9652 23.2119 52.5251 22.9749C52.102 22.721 51.6449 22.5941 51.154 22.5941C50.4939 22.5941 49.9268 22.8056 49.4529 23.2288C48.9958 23.652 48.6658 24.2191 48.4626 24.93C48.2764 25.624 48.141 26.2757 48.0564 26.8851C47.9887 27.4944 47.9548 28.1377 47.9548 28.8148C47.9548 31.6924 48.9197 33.1312 50.8494 33.1312C51.4926 33.1312 52.0766 33.0465 52.6013 32.8773C53.143 32.6911 53.4646 32.4456 53.5662 32.1409ZM58.1885 21.1468L59.3564 21.4007C59.4919 22.7887 59.6103 24.9723 59.7119 27.9515C59.8135 30.9137 59.8812 32.7503 59.915 33.4612C59.7627 33.986 59.4665 34.2484 59.0264 34.2484C58.7217 34.2484 58.4254 34.1299 58.1377 33.8929C57.8669 33.639 57.6976 33.3343 57.6299 32.9788C57.6637 32.2848 57.7314 30.4821 57.833 27.5706C57.9346 24.6422 58.0531 22.501 58.1885 21.1468ZM58.5439 16.6019C59.001 16.6019 59.3818 16.805 59.6865 17.2112C59.9912 17.6006 60.1435 18.0491 60.1435 18.5569C60.1435 18.9293 60.0504 19.234 59.8643 19.471C59.695 19.6911 59.458 19.8011 59.1533 19.8011C58.6794 19.8011 58.307 19.6064 58.0361 19.2171C57.7653 18.8278 57.6299 18.3707 57.6299 17.846C57.6299 17.4736 57.706 17.1774 57.8584 16.9573C58.0277 16.7204 58.2562 16.6019 58.5439 16.6019ZM63.1916 23.2288L62.6838 21.9339C63.1239 21.4938 63.6825 21.1468 64.3596 20.8929C65.0367 20.622 65.7053 20.4866 66.3655 20.4866C69.2261 20.4866 70.6565 22.958 70.6565 27.9007C70.6565 28.5778 70.6142 29.5765 70.5295 30.8968C70.4618 32.2171 70.428 33.2073 70.428 33.8675C70.2926 34.3922 70.0302 34.6546 69.6409 34.6546C69.3362 34.6546 69.0569 34.5023 68.803 34.1976C68.5491 33.8929 68.4221 33.5543 68.4221 33.1819C68.4221 33.0635 68.4306 32.9788 68.4475 32.928C67.398 33.9437 66.2808 34.4515 65.0959 34.4515C64.1988 34.4515 63.4117 34.1299 62.7346 33.4866C62.0745 32.8265 61.7444 32.0309 61.7444 31.0999C61.7444 29.5257 62.3537 28.1038 63.5725 26.8343C64.8082 25.5648 66.2047 24.93 67.762 24.93C67.8297 24.93 67.8974 24.9385 67.9651 24.9554C68.0328 24.9554 68.109 24.9638 68.1936 24.9808C68.2952 24.9977 68.3713 25.0062 68.4221 25.0062C68.2867 23.0257 67.4996 22.0355 66.0608 22.0355C65.2144 22.0355 64.258 22.4332 63.1916 23.2288ZM68.4983 31.1761C68.5321 29.9912 68.5491 29.0941 68.5491 28.4847C68.5491 27.9769 68.5321 27.2659 68.4983 26.3519H68.2952C67.0933 26.3688 65.9931 26.8174 64.9944 27.6976C64.0126 28.5778 63.5217 29.6442 63.5217 30.8968C63.5217 31.4385 63.6825 31.8701 64.0041 32.1917C64.3427 32.5133 64.7489 32.6741 65.2229 32.6741C65.9677 32.6741 67.0595 32.1748 68.4983 31.1761ZM73.3237 16.7796L74.4917 17.0335L75.0503 33.4612C74.8979 33.986 74.6017 34.2484 74.1616 34.2484C73.8569 34.2484 73.5607 34.1299 73.2729 33.8929C73.0021 33.639 72.8328 33.3343 72.7651 32.9788L73.3237 16.7796Z" fill="black"/>
</g>
<defs>
<filter id="filter0_d_3_20757" x="-2" y="0" width="101" height="47.5976" filterUnits="userSpaceOnUse" color-interpolation-filters="sRGB">
<feFlood flood-opacity="0" result="BackgroundImageFix"/>
<feColorMatrix in="SourceAlpha" type="matrix" values="0 0 0 0 0 0 0 0 0 0 0 0 0 0 0 0 0 0 127 0" result="hardAlpha"/>
<feOffset dy="4"/>
<feGaussianBlur stdDeviation="2"/>
<feComposite in2="hardAlpha" operator="out"/>
<feColorMatrix type="matrix" values="0 0 0 0 0 0 0 0 0 0 0 0 0 0 0 0 0 0 0.25 0"/>
<feBlend mode="normal" in2="BackgroundImageFix" result="effect1_dropShadow_3_20757"/>
<feBlend mode="normal" in="SourceGraphic" in2="effect1_dropShadow_3_20757" result="shape"/>
</filter>
</defs>
</svg>
